<?xml version="1.0" encoding="UTF-8" standalone="no"?>
<!DOCTYPE svg PUBLIC "-//W3C//DTD SVG 1.1//EN"
 "http://www.w3.org/Graphics/SVG/1.1/DTD/svg11.dtd">
<!-- Generated by graphviz version 15.1.0 (20260618.0150)
 -->
<!-- Title: G Pages: 1 -->
<svg width="428pt" height="548pt"
 viewBox="0.00 0.00 428.00 548.00" xmlns="http://www.w3.org/2000/svg" xmlns:xlink="http://www.w3.org/1999/xlink">
<g id="graph0" class="graph" transform="scale(1 1) rotate(0) translate(4 544)">
<title>G</title><style>.edge>path:hover{stroke-width:8}</style>
<polygon fill="white" stroke="none" points="-4,4 -4,-544 424.27,-544 424.27,4 -4,4"/>
<!-- rya__vendor -->
<g id="node1" class="node">
<title>rya__vendor</title><style>.edge>path:hover{stroke-width:8}</style>
<ellipse fill="#c04040" stroke="black" cx="260.88" cy="-18" rx="39.64" ry="18"/>
<text xml:space="preserve" text-anchor="middle" x="260.88" y="-14.12" font-family="Helvetica,sans-Serif" font-size="10.00" fill="#ffffff">rya._vendor</text>
</g>
<!-- rya_kernel -->
<g id="node4" class="node">
<title>rya_kernel</title><style>.edge>path:hover{stroke-width:8}</style>
<ellipse fill="#ef0606" stroke="black" cx="260.88" cy="-90" rx="34.76" ry="18"/>
<text xml:space="preserve" text-anchor="middle" x="260.88" y="-86.12" font-family="Helvetica,sans-Serif" font-size="10.00" fill="#ffffff">rya.kernel</text>
</g>
<!-- rya__vendor&#45;&gt;rya_kernel -->
<g id="edge1" class="edge">
<title>rya__vendor&#45;&gt;rya_kernel</title><style>.edge>path:hover{stroke-width:8}</style>
<path fill="none" stroke="black" d="M260.88,-36.3C260.88,-43.59 260.88,-52.27 260.88,-60.46"/>
<polygon fill="#c04040" stroke="black" points="257.38,-60.38 260.88,-70.38 264.38,-60.38 257.38,-60.38"/>
</g>
<!-- rya_cli -->
<g id="node2" class="node">
<title>rya_cli</title><style>.edge>path:hover{stroke-width:8}</style>
<ellipse fill="#793434" stroke="black" cx="152.88" cy="-522" rx="27" ry="18"/>
<text xml:space="preserve" text-anchor="middle" x="152.88" y="-518.12" font-family="Helvetica,sans-Serif" font-size="10.00" fill="#ffffff">rya.cli</text>
</g>
<!-- rya_config -->
<g id="node3" class="node">
<title>rya_config</title><style>.edge>path:hover{stroke-width:8}</style>
<ellipse fill="#b42d2d" stroke="black" cx="188.88" cy="-378" rx="34.76" ry="18"/>
<text xml:space="preserve" text-anchor="middle" x="188.88" y="-374.12" font-family="Helvetica,sans-Serif" font-size="10.00" fill="#ffffff">rya.config</text>
</g>
<!-- rya_config&#45;&gt;rya_cli -->
<g id="edge2" class="edge">
<title>rya_config&#45;&gt;rya_cli</title><style>.edge>path:hover{stroke-width:8}</style>
<path fill="none" stroke="black" d="M163.13,-390.38C131.83,-405.08 83.65,-430.93 87.88,-449"/>
</g>
<!-- rya_plugins -->
<g id="node7" class="node">
<title>rya_plugins</title><style>.edge>path:hover{stroke-width:8}</style>
<ellipse fill="#913030" stroke="black" cx="152.88" cy="-450" rx="37.42" ry="18"/>
<text xml:space="preserve" text-anchor="middle" x="152.88" y="-446.12" font-family="Helvetica,sans-Serif" font-size="10.00" fill="#ffffff">rya.plugins</text>
</g>
<!-- rya_config&#45;&gt;rya_plugins -->
<g id="edge3" class="edge">
<title>rya_config&#45;&gt;rya_plugins</title><style>.edge>path:hover{stroke-width:8}</style>
<path fill="none" stroke="black" d="M180.35,-395.59C176.28,-403.49 171.32,-413.15 166.73,-422.06"/>
<polygon fill="#b42d2d" stroke="black" points="163.75,-420.2 162.29,-430.7 169.98,-423.41 163.75,-420.2"/>
</g>
<!-- rya_kernel&#45;&gt;rya_cli -->
<g id="edge4" class="edge">
<title>rya_kernel&#45;&gt;rya_cli</title><style>.edge>path:hover{stroke-width:8}</style>
<path fill="none" stroke="black" d="M415.88,-235C412.35,-265.91 404.39,-276.09 415.88,-305"/>
</g>
<!-- rya_kernel&#45;&gt;rya_config -->
<g id="edge5" class="edge">
<title>rya_kernel&#45;&gt;rya_config</title><style>.edge>path:hover{stroke-width:8}</style>
<path fill="none" stroke="black" d="M213.88,-235C212.71,-274.85 203.32,-320.07 196.39,-348.56"/>
<polygon fill="#ef0606" stroke="black" points="193.01,-347.66 193.97,-358.21 199.8,-349.36 193.01,-347.66"/>
</g>
<!-- rya_loggers -->
<g id="node5" class="node">
<title>rya_loggers</title><style>.edge>path:hover{stroke-width:8}</style>
<ellipse fill="#ca1616" stroke="black" cx="147.88" cy="-306" rx="37.87" ry="18"/>
<text xml:space="preserve" text-anchor="middle" x="147.88" y="-302.12" font-family="Helvetica,sans-Serif" font-size="10.00" fill="#ffffff">rya.loggers</text>
</g>
<!-- rya_kernel&#45;&gt;rya_loggers -->
<g id="edge6" class="edge">
<title>rya_kernel&#45;&gt;rya_loggers</title><style>.edge>path:hover{stroke-width:8}</style>
<path fill="none" stroke="black" d="M185.88,-163C164.84,-189.08 214.87,-199.51 213.88,-233"/>
<path fill="none" stroke="black" d="M213.88,-235C213.26,-255.93 197.42,-273.16 181.41,-285.28"/>
<polygon fill="#ef0606" stroke="black" points="179.5,-282.34 173.32,-290.95 183.52,-288.08 179.5,-282.34"/>
</g>
<!-- rya_names -->
<g id="node6" class="node">
<title>rya_names</title><style>.edge>path:hover{stroke-width:8}</style>
<ellipse fill="#ef0606" stroke="black" cx="260.88" cy="-162" rx="36.54" ry="18"/>
<text xml:space="preserve" text-anchor="middle" x="260.88" y="-158.12" font-family="Helvetica,sans-Serif" font-size="10.00" fill="#ffffff">rya.names</text>
</g>
<!-- rya_kernel&#45;&gt;rya_names -->
<g id="edge7" class="edge">
<title>rya_kernel&#45;&gt;rya_names</title><style>.edge>path:hover{stroke-width:8}</style>
<path fill="none" stroke="black" d="M260.88,-108.3C260.88,-115.59 260.88,-124.27 260.88,-132.46"/>
<polygon fill="#ef0606" stroke="black" points="257.38,-132.38 260.88,-142.38 264.38,-132.38 257.38,-132.38"/>
</g>
<!-- rya_kernel&#45;&gt;rya_plugins -->
<g id="edge8" class="edge">
<title>rya_kernel&#45;&gt;rya_plugins</title><style>.edge>path:hover{stroke-width:8}</style>
<path fill="none" stroke="black" d="M415.88,-235C410.57,-281.67 393.87,-292.66 358.88,-324 319.35,-359.41 291.06,-341.2 251.88,-377"/>
</g>
<!-- rya_pre_init -->
<g id="node8" class="node">
<title>rya_pre_init</title><style>.edge>path:hover{stroke-width:8}</style>
<ellipse fill="#d31717" stroke="black" cx="147.88" cy="-234" rx="37.87" ry="18"/>
<text xml:space="preserve" text-anchor="middle" x="147.88" y="-230.12" font-family="Helvetica,sans-Serif" font-size="10.00" fill="#ffffff">rya.pre_init</text>
</g>
<!-- rya_kernel&#45;&gt;rya_pre_init -->
<g id="edge9" class="edge">
<title>rya_kernel&#45;&gt;rya_pre_init</title><style>.edge>path:hover{stroke-width:8}</style>
<path fill="none" stroke="black" d="M185.88,-163C175.47,-175.91 166.47,-192.09 159.85,-205.64"/>
<polygon fill="#ef0606" stroke="black" points="156.79,-203.92 155.71,-214.46 163.13,-206.89 156.79,-203.92"/>
</g>
<!-- rya_styles -->
<g id="node9" class="node">
<title>rya_styles</title><style>.edge>path:hover{stroke-width:8}</style>
<ellipse fill="#bc2f2f" stroke="black" cx="314.88" cy="-306" rx="34.76" ry="18"/>
<text xml:space="preserve" text-anchor="middle" x="314.88" y="-302.12" font-family="Helvetica,sans-Serif" font-size="10.00" fill="#ffffff">rya.styles</text>
</g>
<!-- rya_kernel&#45;&gt;rya_styles -->
<g id="edge10" class="edge">
<title>rya_kernel&#45;&gt;rya_styles</title><style>.edge>path:hover{stroke-width:8}</style>
<path fill="none" stroke="black" d="M415.88,-235C407.68,-262.9 379.57,-280.94 355.08,-291.7"/>
<polygon fill="#ef0606" stroke="black" points="353.86,-288.42 345.93,-295.44 356.51,-294.9 353.86,-288.42"/>
<path fill="none" stroke="black" d="M289.19,-100.73C339.08,-119.75 435.59,-165.95 415.88,-233"/>
</g>
<!-- rya_utils -->
<g id="node10" class="node">
<title>rya_utils</title><style>.edge>path:hover{stroke-width:8}</style>
<ellipse fill="#a83838" stroke="black" cx="29.88" cy="-378" rx="29.88" ry="18"/>
<text xml:space="preserve" text-anchor="middle" x="29.88" y="-374.12" font-family="Helvetica,sans-Serif" font-size="10.00" fill="#ffffff">rya.utils</text>
</g>
<!-- rya_kernel&#45;&gt;rya_utils -->
<g id="edge11" class="edge">
<title>rya_kernel&#45;&gt;rya_utils</title><style>.edge>path:hover{stroke-width:8}</style>
<path fill="none" stroke="black" d="M242.54,-105.58C226.44,-118.93 202.99,-139.79 185.88,-161"/>
<path fill="none" stroke="black" d="M185.88,-163C157.93,-197.65 130.29,-182.57 100.88,-216 66.16,-255.46 46.04,-314.6 36.58,-349.15"/>
<polygon fill="#ef0606" stroke="black" points="33.31,-347.83 34.16,-358.39 40.08,-349.6 33.31,-347.83"/>
</g>
<!-- rya_loggers&#45;&gt;rya_cli -->
<g id="edge12" class="edge">
<title>rya_loggers&#45;&gt;rya_cli</title><style>.edge>path:hover{stroke-width:8}</style>
<path fill="none" stroke="black" d="M125.88,-379C119.32,-413.79 79.81,-414.53 87.88,-449"/>
<path fill="none" stroke="black" d="M141.3,-323.97C136.18,-337.97 129.37,-358.47 125.88,-377"/>
</g>
<!-- rya_loggers&#45;&gt;rya_config -->
<g id="edge13" class="edge">
<title>rya_loggers&#45;&gt;rya_config</title><style>.edge>path:hover{stroke-width:8}</style>
<path fill="none" stroke="black" d="M157.6,-323.59C162.35,-331.7 168.17,-341.65 173.51,-350.75"/>
<polygon fill="#ca1616" stroke="black" points="170.39,-352.36 178.47,-359.22 176.44,-348.83 170.39,-352.36"/>
</g>
<!-- rya_loggers&#45;&gt;rya_plugins -->
<g id="edge14" class="edge">
<title>rya_loggers&#45;&gt;rya_plugins</title><style>.edge>path:hover{stroke-width:8}</style>
<path fill="none" stroke="black" d="M125.88,-379C123.04,-394.05 128.51,-410.04 135.24,-422.93"/>
<polygon fill="#ca1616" stroke="black" points="132,-424.31 140.03,-431.22 138.06,-420.81 132,-424.31"/>
</g>
<!-- rya_loggers&#45;&gt;rya_utils -->
<g id="edge15" class="edge">
<title>rya_loggers&#45;&gt;rya_utils</title><style>.edge>path:hover{stroke-width:8}</style>
<path fill="none" stroke="black" d="M124.85,-320.66C106.37,-331.62 80.29,-347.1 60.13,-359.05"/>
<polygon fill="#ca1616" stroke="black" points="58.6,-355.89 51.79,-364 62.17,-361.91 58.6,-355.89"/>
</g>
<!-- rya_names&#45;&gt;rya_cli -->
<g id="edge16" class="edge">
<title>rya_names&#45;&gt;rya_cli</title><style>.edge>path:hover{stroke-width:8}</style>
<path fill="none" stroke="black" d="M279.88,-235C289.91,-302.24 390.77,-241.83 415.88,-305"/>
<path fill="none" stroke="black" d="M415.88,-307C427.37,-335.91 411.3,-346.23 415.88,-377"/>
</g>
<!-- rya_names&#45;&gt;rya_config -->
<g id="edge17" class="edge">
<title>rya_names&#45;&gt;rya_config</title><style>.edge>path:hover{stroke-width:8}</style>
<path fill="none" stroke="black" d="M251.88,-307C244.2,-325.59 229.35,-342.49 215.99,-355.02"/>
<polygon fill="#ef0606" stroke="black" points="213.77,-352.31 208.65,-361.58 218.44,-357.52 213.77,-352.31"/>
<path fill="none" stroke="black" d="M279.88,-235C284.82,-268.14 264.67,-274.03 251.88,-305"/>
</g>
<!-- rya_names&#45;&gt;rya_loggers -->
<g id="edge18" class="edge">
<title>rya_names&#45;&gt;rya_loggers</title><style>.edge>path:hover{stroke-width:8}</style>
<path fill="none" stroke="black" d="M266.7,-180.02C271.21,-194.05 277.13,-214.57 279.88,-233"/>
<path fill="none" stroke="black" d="M279.88,-235C285.82,-274.78 236.13,-292.05 196.03,-299.49"/>
<polygon fill="#ef0606" stroke="black" points="195.54,-296.02 186.26,-301.12 196.7,-302.92 195.54,-296.02"/>
</g>
<!-- rya_names&#45;&gt;rya_plugins -->
<g id="edge19" class="edge">
<title>rya_names&#45;&gt;rya_plugins</title><style>.edge>path:hover{stroke-width:8}</style>
<path fill="none" stroke="black" d="M251.88,-307C240.01,-335.76 274.85,-356.01 251.88,-377"/>
<path fill="none" stroke="black" d="M251.88,-379C243.52,-386.64 241.85,-389.08 232.88,-396 217.63,-407.78 199.83,-419.73 184.89,-429.3"/>
<polygon fill="#ef0606" stroke="black" points="183.41,-426.1 176.83,-434.4 187.15,-432.01 183.41,-426.1"/>
</g>
<!-- rya_names&#45;&gt;rya_pre_init -->
<g id="edge20" class="edge">
<title>rya_names&#45;&gt;rya_pre_init</title><style>.edge>path:hover{stroke-width:8}</style>
<path fill="none" stroke="black" d="M238.82,-176.66C222.06,-187.05 198.74,-201.49 179.92,-213.15"/>
<polygon fill="#ef0606" stroke="black" points="178.21,-210.09 171.55,-218.34 181.9,-216.04 178.21,-210.09"/>
</g>
<!-- rya_names&#45;&gt;rya_styles -->
<g id="edge21" class="edge">
<title>rya_names&#45;&gt;rya_styles</title><style>.edge>path:hover{stroke-width:8}</style>
<path fill="none" stroke="black" d="M279.88,-235C282.22,-250.69 289.71,-266.64 297.16,-279.33"/>
<polygon fill="#ef0606" stroke="black" points="293.97,-280.83 302.23,-287.47 299.92,-277.13 293.97,-280.83"/>
</g>
<!-- rya_plugins&#45;&gt;rya_cli -->
<g id="edge22" class="edge">
<title>rya_plugins&#45;&gt;rya_cli</title><style>.edge>path:hover{stroke-width:8}</style>
<path fill="none" stroke="black" d="M152.88,-468.3C152.88,-475.59 152.88,-484.27 152.88,-492.46"/>
<polygon fill="#913030" stroke="black" points="149.38,-492.38 152.88,-502.38 156.38,-492.38 149.38,-492.38"/>
</g>
<!-- rya_pre_init&#45;&gt;rya_cli -->
<g id="edge23" class="edge">
<title>rya_pre_init&#45;&gt;rya_cli</title><style>.edge>path:hover{stroke-width:8}</style>
<path fill="none" stroke="black" d="M81.88,-307C66.21,-334.01 80.05,-346.77 87.88,-377"/>
<path fill="none" stroke="black" d="M87.88,-379C95.69,-409.12 80.79,-418.71 87.88,-449"/>
</g>
<!-- rya_pre_init&#45;&gt;rya_loggers -->
<g id="edge24" class="edge">
<title>rya_pre_init&#45;&gt;rya_loggers</title><style>.edge>path:hover{stroke-width:8}</style>
<path fill="none" stroke="black" d="M147.88,-252.3C147.88,-259.59 147.88,-268.27 147.88,-276.46"/>
<polygon fill="#d31717" stroke="black" points="144.38,-276.38 147.88,-286.38 151.38,-276.38 144.38,-276.38"/>
</g>
<!-- rya_pre_init&#45;&gt;rya_plugins -->
<g id="edge25" class="edge">
<title>rya_pre_init&#45;&gt;rya_plugins</title><style>.edge>path:hover{stroke-width:8}</style>
<path fill="none" stroke="black" d="M87.88,-379C92.98,-398.68 108.1,-415.56 122.47,-427.81"/>
<polygon fill="#d31717" stroke="black" points="120.05,-430.36 130.04,-433.88 124.43,-424.89 120.05,-430.36"/>
</g>
<!-- rya_pre_init&#45;&gt;rya_utils -->
<g id="edge26" class="edge">
<title>rya_pre_init&#45;&gt;rya_utils</title><style>.edge>path:hover{stroke-width:8}</style>
<path fill="none" stroke="black" d="M81.88,-307C72.59,-323.02 60.31,-339.71 50.01,-352.77"/>
<polygon fill="#d31717" stroke="black" points="47.42,-350.41 43.89,-360.4 52.88,-354.8 47.42,-350.41"/>
<path fill="none" stroke="black" d="M129.47,-250.18C114.68,-263.29 94.37,-283.47 81.88,-305"/>
</g>
<!-- rya_styles&#45;&gt;rya_cli -->
<g id="edge27" class="edge">
<title>rya_styles&#45;&gt;rya_cli</title><style>.edge>path:hover{stroke-width:8}</style>
<path fill="none" stroke="black" d="M343.99,-315.98C370.09,-325.97 405.8,-345.06 415.88,-377"/>
<path fill="none" stroke="black" d="M415.88,-379C446.97,-477.45 270.87,-508.64 190.86,-517.66"/>
<polygon fill="#bc2f2f" stroke="black" points="190.86,-514.14 181.29,-518.67 191.6,-521.1 190.86,-514.14"/>
</g>
<!-- rya_styles&#45;&gt;rya_plugins -->
<g id="edge28" class="edge">
<title>rya_styles&#45;&gt;rya_plugins</title><style>.edge>path:hover{stroke-width:8}</style>
<path fill="none" stroke="black" d="M301.94,-323.11C289.74,-337.85 270.59,-359.9 251.88,-377"/>
</g>
<!-- rya_utils&#45;&gt;rya_cli -->
<g id="edge29" class="edge">
<title>rya_utils&#45;&gt;rya_cli</title><style>.edge>path:hover{stroke-width:8}</style>
<path fill="none" stroke="black" d="M48.11,-392.71C62.99,-405.34 82.41,-425.64 87.88,-449"/>
<path fill="none" stroke="black" d="M87.88,-451C92.77,-471.86 109.27,-489.49 124.43,-501.84"/>
<polygon fill="#a83838" stroke="black" points="122.3,-504.62 132.37,-507.91 126.55,-499.06 122.3,-504.62"/>
</g>
</g>
</svg>
